<mxfile host="app.diagrams.net" modified="2023-06-07T20:27:53.402Z" agent="Mozilla/5.0 (Macintosh; Intel Mac OS X 10_15_7) AppleWebKit/537.36 (KHTML, like Gecko) Chrome/114.0.0.0 Safari/537.36" etag="Z0jDHaa6PlFDPp67UOaW" version="21.3.7" type="github">
  <diagram name="Page-1" id="y91M_qhP0_XLDetESHHj">
    <mxGraphModel dx="3305" dy="1380" grid="1" gridSize="10" guides="1" tooltips="1" connect="1" arrows="1" fold="1" page="1" pageScale="1" pageWidth="850" pageHeight="1100" math="0" shadow="0">
      <root>
        <mxCell id="0" />
        <mxCell id="1" parent="0" />
        <mxCell id="rMuPhSQedwrYlNpY_E_n-1" value="OAM" style="rounded=0;whiteSpace=wrap;html=1;" vertex="1" parent="1">
          <mxGeometry x="40" y="80" width="120" height="40" as="geometry" />
        </mxCell>
        <mxCell id="rMuPhSQedwrYlNpY_E_n-3" value="OAM" style="rounded=0;whiteSpace=wrap;html=1;" vertex="1" parent="1">
          <mxGeometry x="200" y="80" width="120" height="40" as="geometry" />
        </mxCell>
        <mxCell id="rMuPhSQedwrYlNpY_E_n-4" value="OAM" style="rounded=0;whiteSpace=wrap;html=1;" vertex="1" parent="1">
          <mxGeometry x="360" y="80" width="120" height="40" as="geometry" />
        </mxCell>
        <mxCell id="rMuPhSQedwrYlNpY_E_n-5" value="OAM" style="rounded=0;whiteSpace=wrap;html=1;" vertex="1" parent="1">
          <mxGeometry x="520" y="80" width="120" height="40" as="geometry" />
        </mxCell>
        <mxCell id="rMuPhSQedwrYlNpY_E_n-6" value="OAM" style="rounded=0;whiteSpace=wrap;html=1;" vertex="1" parent="1">
          <mxGeometry x="680" y="80" width="120" height="40" as="geometry" />
        </mxCell>
        <mxCell id="rMuPhSQedwrYlNpY_E_n-7" value="L1 SWITCH0" style="rounded=0;whiteSpace=wrap;html=1;" vertex="1" parent="1">
          <mxGeometry x="60" y="280" width="320" height="40" as="geometry" />
        </mxCell>
        <mxCell id="rMuPhSQedwrYlNpY_E_n-8" value="L1 SWITCH1" style="rounded=0;whiteSpace=wrap;html=1;" vertex="1" parent="1">
          <mxGeometry x="460" y="280" width="320" height="40" as="geometry" />
        </mxCell>
        <mxCell id="rMuPhSQedwrYlNpY_E_n-10" value="" style="endArrow=classic;startArrow=classic;html=1;rounded=0;entryX=0.308;entryY=1.025;entryDx=0;entryDy=0;entryPerimeter=0;exitX=0.5;exitY=0;exitDx=0;exitDy=0;fillColor=#dae8fc;strokeColor=#6c8ebf;strokeWidth=3;" edge="1" parent="1" source="rMuPhSQedwrYlNpY_E_n-7" target="rMuPhSQedwrYlNpY_E_n-1">
          <mxGeometry width="50" height="50" relative="1" as="geometry">
            <mxPoint x="400" y="610" as="sourcePoint" />
            <mxPoint x="450" y="560" as="targetPoint" />
          </mxGeometry>
        </mxCell>
        <mxCell id="rMuPhSQedwrYlNpY_E_n-12" value="" style="endArrow=classic;startArrow=classic;html=1;rounded=0;entryX=0.75;entryY=1;entryDx=0;entryDy=0;exitX=0.5;exitY=0;exitDx=0;exitDy=0;fillColor=#dae8fc;strokeColor=#6c8ebf;strokeWidth=3;" edge="1" parent="1" source="rMuPhSQedwrYlNpY_E_n-8" target="rMuPhSQedwrYlNpY_E_n-1">
          <mxGeometry width="50" height="50" relative="1" as="geometry">
            <mxPoint x="150" y="210" as="sourcePoint" />
            <mxPoint x="87" y="131" as="targetPoint" />
          </mxGeometry>
        </mxCell>
        <mxCell id="rMuPhSQedwrYlNpY_E_n-13" value="" style="endArrow=classic;startArrow=classic;html=1;rounded=0;entryX=0.25;entryY=1;entryDx=0;entryDy=0;exitX=0.5;exitY=0;exitDx=0;exitDy=0;fillColor=#dae8fc;strokeColor=#6c8ebf;strokeWidth=3;" edge="1" parent="1" source="rMuPhSQedwrYlNpY_E_n-7" target="rMuPhSQedwrYlNpY_E_n-3">
          <mxGeometry width="50" height="50" relative="1" as="geometry">
            <mxPoint x="519" y="209" as="sourcePoint" />
            <mxPoint x="140" y="130" as="targetPoint" />
          </mxGeometry>
        </mxCell>
        <mxCell id="rMuPhSQedwrYlNpY_E_n-14" value="" style="endArrow=classic;startArrow=classic;html=1;rounded=0;entryX=0.75;entryY=1;entryDx=0;entryDy=0;exitX=0.5;exitY=0;exitDx=0;exitDy=0;fillColor=#dae8fc;strokeColor=#6c8ebf;strokeWidth=3;" edge="1" parent="1" source="rMuPhSQedwrYlNpY_E_n-8" target="rMuPhSQedwrYlNpY_E_n-3">
          <mxGeometry width="50" height="50" relative="1" as="geometry">
            <mxPoint x="519" y="209" as="sourcePoint" />
            <mxPoint x="140" y="130" as="targetPoint" />
          </mxGeometry>
        </mxCell>
        <mxCell id="rMuPhSQedwrYlNpY_E_n-15" value="" style="endArrow=classic;startArrow=classic;html=1;rounded=0;entryX=0.25;entryY=1;entryDx=0;entryDy=0;exitX=0.5;exitY=0;exitDx=0;exitDy=0;fillColor=#dae8fc;strokeColor=#6c8ebf;strokeWidth=3;" edge="1" parent="1" source="rMuPhSQedwrYlNpY_E_n-7" target="rMuPhSQedwrYlNpY_E_n-4">
          <mxGeometry width="50" height="50" relative="1" as="geometry">
            <mxPoint x="550" y="210" as="sourcePoint" />
            <mxPoint x="140" y="130" as="targetPoint" />
          </mxGeometry>
        </mxCell>
        <mxCell id="rMuPhSQedwrYlNpY_E_n-16" value="" style="endArrow=classic;startArrow=classic;html=1;rounded=0;entryX=0.75;entryY=1;entryDx=0;entryDy=0;exitX=0.5;exitY=0;exitDx=0;exitDy=0;fillColor=#dae8fc;strokeColor=#6c8ebf;strokeWidth=3;" edge="1" parent="1" source="rMuPhSQedwrYlNpY_E_n-8" target="rMuPhSQedwrYlNpY_E_n-4">
          <mxGeometry width="50" height="50" relative="1" as="geometry">
            <mxPoint x="550" y="210" as="sourcePoint" />
            <mxPoint x="140" y="130" as="targetPoint" />
          </mxGeometry>
        </mxCell>
        <mxCell id="rMuPhSQedwrYlNpY_E_n-17" value="" style="endArrow=classic;startArrow=classic;html=1;rounded=0;entryX=0.25;entryY=1;entryDx=0;entryDy=0;exitX=0.5;exitY=0;exitDx=0;exitDy=0;fillColor=#dae8fc;strokeColor=#6c8ebf;strokeWidth=3;" edge="1" parent="1" source="rMuPhSQedwrYlNpY_E_n-7" target="rMuPhSQedwrYlNpY_E_n-5">
          <mxGeometry width="50" height="50" relative="1" as="geometry">
            <mxPoint x="550" y="210" as="sourcePoint" />
            <mxPoint x="300" y="130" as="targetPoint" />
          </mxGeometry>
        </mxCell>
        <mxCell id="rMuPhSQedwrYlNpY_E_n-18" value="" style="endArrow=classic;startArrow=classic;html=1;rounded=0;entryX=0.25;entryY=1;entryDx=0;entryDy=0;fillColor=#dae8fc;strokeColor=#6c8ebf;strokeWidth=3;exitX=0.5;exitY=0;exitDx=0;exitDy=0;" edge="1" parent="1" source="rMuPhSQedwrYlNpY_E_n-7" target="rMuPhSQedwrYlNpY_E_n-6">
          <mxGeometry width="50" height="50" relative="1" as="geometry">
            <mxPoint x="300" y="200" as="sourcePoint" />
            <mxPoint x="560" y="130" as="targetPoint" />
          </mxGeometry>
        </mxCell>
        <mxCell id="rMuPhSQedwrYlNpY_E_n-19" value="" style="endArrow=classic;startArrow=classic;html=1;rounded=0;entryX=0.75;entryY=1;entryDx=0;entryDy=0;exitX=0.5;exitY=0;exitDx=0;exitDy=0;fillColor=#dae8fc;strokeColor=#6c8ebf;strokeWidth=3;" edge="1" parent="1" source="rMuPhSQedwrYlNpY_E_n-8" target="rMuPhSQedwrYlNpY_E_n-5">
          <mxGeometry width="50" height="50" relative="1" as="geometry">
            <mxPoint x="630" y="210" as="sourcePoint" />
            <mxPoint x="460" y="130" as="targetPoint" />
          </mxGeometry>
        </mxCell>
        <mxCell id="rMuPhSQedwrYlNpY_E_n-20" value="" style="endArrow=classic;startArrow=classic;html=1;rounded=0;entryX=0.75;entryY=1;entryDx=0;entryDy=0;exitX=0.5;exitY=0;exitDx=0;exitDy=0;fillColor=#dae8fc;strokeColor=#6c8ebf;strokeWidth=3;" edge="1" parent="1" source="rMuPhSQedwrYlNpY_E_n-8" target="rMuPhSQedwrYlNpY_E_n-6">
          <mxGeometry width="50" height="50" relative="1" as="geometry">
            <mxPoint x="710" y="210" as="sourcePoint" />
            <mxPoint x="620" y="130" as="targetPoint" />
          </mxGeometry>
        </mxCell>
        <mxCell id="rMuPhSQedwrYlNpY_E_n-21" value="OAM" style="rounded=0;whiteSpace=wrap;html=1;" vertex="1" parent="1">
          <mxGeometry x="1240" y="80" width="120" height="40" as="geometry" />
        </mxCell>
        <mxCell id="rMuPhSQedwrYlNpY_E_n-22" value="OAM" style="rounded=0;whiteSpace=wrap;html=1;" vertex="1" parent="1">
          <mxGeometry x="1400" y="80" width="120" height="40" as="geometry" />
        </mxCell>
        <mxCell id="rMuPhSQedwrYlNpY_E_n-23" value="OAM" style="rounded=0;whiteSpace=wrap;html=1;" vertex="1" parent="1">
          <mxGeometry x="1560" y="80" width="120" height="40" as="geometry" />
        </mxCell>
        <mxCell id="rMuPhSQedwrYlNpY_E_n-24" value="OAM" style="rounded=0;whiteSpace=wrap;html=1;" vertex="1" parent="1">
          <mxGeometry x="1720" y="80" width="120" height="40" as="geometry" />
        </mxCell>
        <mxCell id="rMuPhSQedwrYlNpY_E_n-25" value="OAM" style="rounded=0;whiteSpace=wrap;html=1;" vertex="1" parent="1">
          <mxGeometry x="1880" y="80" width="120" height="40" as="geometry" />
        </mxCell>
        <mxCell id="rMuPhSQedwrYlNpY_E_n-26" value="L1 SWITCH 38" style="rounded=0;whiteSpace=wrap;html=1;" vertex="1" parent="1">
          <mxGeometry x="1260" y="280" width="320" height="40" as="geometry" />
        </mxCell>
        <mxCell id="rMuPhSQedwrYlNpY_E_n-27" value="L1 SWITCH 39" style="rounded=0;whiteSpace=wrap;html=1;" vertex="1" parent="1">
          <mxGeometry x="1660" y="280" width="320" height="40" as="geometry" />
        </mxCell>
        <mxCell id="rMuPhSQedwrYlNpY_E_n-28" value="" style="endArrow=classic;startArrow=classic;html=1;rounded=0;entryX=0.308;entryY=1.025;entryDx=0;entryDy=0;entryPerimeter=0;exitX=0.5;exitY=0;exitDx=0;exitDy=0;fillColor=#dae8fc;strokeColor=#6c8ebf;strokeWidth=3;" edge="1" parent="1" source="rMuPhSQedwrYlNpY_E_n-26" target="rMuPhSQedwrYlNpY_E_n-21">
          <mxGeometry width="50" height="50" relative="1" as="geometry">
            <mxPoint x="1600" y="610" as="sourcePoint" />
            <mxPoint x="1650" y="560" as="targetPoint" />
          </mxGeometry>
        </mxCell>
        <mxCell id="rMuPhSQedwrYlNpY_E_n-29" value="" style="endArrow=classic;startArrow=classic;html=1;rounded=0;entryX=0.75;entryY=1;entryDx=0;entryDy=0;exitX=0.5;exitY=0;exitDx=0;exitDy=0;fillColor=#dae8fc;strokeColor=#6c8ebf;strokeWidth=3;" edge="1" parent="1" source="rMuPhSQedwrYlNpY_E_n-27" target="rMuPhSQedwrYlNpY_E_n-21">
          <mxGeometry width="50" height="50" relative="1" as="geometry">
            <mxPoint x="1350" y="210" as="sourcePoint" />
            <mxPoint x="1287" y="131" as="targetPoint" />
          </mxGeometry>
        </mxCell>
        <mxCell id="rMuPhSQedwrYlNpY_E_n-30" value="" style="endArrow=classic;startArrow=classic;html=1;rounded=0;entryX=0.25;entryY=1;entryDx=0;entryDy=0;exitX=0.5;exitY=0;exitDx=0;exitDy=0;fillColor=#dae8fc;strokeColor=#6c8ebf;strokeWidth=3;" edge="1" parent="1" source="rMuPhSQedwrYlNpY_E_n-26" target="rMuPhSQedwrYlNpY_E_n-22">
          <mxGeometry width="50" height="50" relative="1" as="geometry">
            <mxPoint x="1719" y="209" as="sourcePoint" />
            <mxPoint x="1340" y="130" as="targetPoint" />
          </mxGeometry>
        </mxCell>
        <mxCell id="rMuPhSQedwrYlNpY_E_n-31" value="" style="endArrow=classic;startArrow=classic;html=1;rounded=0;entryX=0.75;entryY=1;entryDx=0;entryDy=0;exitX=0.5;exitY=0;exitDx=0;exitDy=0;fillColor=#dae8fc;strokeColor=#6c8ebf;strokeWidth=3;" edge="1" parent="1" source="rMuPhSQedwrYlNpY_E_n-27" target="rMuPhSQedwrYlNpY_E_n-22">
          <mxGeometry width="50" height="50" relative="1" as="geometry">
            <mxPoint x="1719" y="209" as="sourcePoint" />
            <mxPoint x="1340" y="130" as="targetPoint" />
          </mxGeometry>
        </mxCell>
        <mxCell id="rMuPhSQedwrYlNpY_E_n-32" value="" style="endArrow=classic;startArrow=classic;html=1;rounded=0;entryX=0.25;entryY=1;entryDx=0;entryDy=0;exitX=0.5;exitY=0;exitDx=0;exitDy=0;fillColor=#dae8fc;strokeColor=#6c8ebf;strokeWidth=3;" edge="1" parent="1" source="rMuPhSQedwrYlNpY_E_n-26" target="rMuPhSQedwrYlNpY_E_n-23">
          <mxGeometry width="50" height="50" relative="1" as="geometry">
            <mxPoint x="1750" y="210" as="sourcePoint" />
            <mxPoint x="1340" y="130" as="targetPoint" />
          </mxGeometry>
        </mxCell>
        <mxCell id="rMuPhSQedwrYlNpY_E_n-33" value="" style="endArrow=classic;startArrow=classic;html=1;rounded=0;entryX=0.75;entryY=1;entryDx=0;entryDy=0;exitX=0.5;exitY=0;exitDx=0;exitDy=0;fillColor=#dae8fc;strokeColor=#6c8ebf;strokeWidth=3;" edge="1" parent="1" source="rMuPhSQedwrYlNpY_E_n-27" target="rMuPhSQedwrYlNpY_E_n-23">
          <mxGeometry width="50" height="50" relative="1" as="geometry">
            <mxPoint x="1750" y="210" as="sourcePoint" />
            <mxPoint x="1340" y="130" as="targetPoint" />
          </mxGeometry>
        </mxCell>
        <mxCell id="rMuPhSQedwrYlNpY_E_n-34" value="" style="endArrow=classic;startArrow=classic;html=1;rounded=0;entryX=0.25;entryY=1;entryDx=0;entryDy=0;exitX=0.5;exitY=0;exitDx=0;exitDy=0;fillColor=#dae8fc;strokeColor=#6c8ebf;strokeWidth=3;" edge="1" parent="1" source="rMuPhSQedwrYlNpY_E_n-26" target="rMuPhSQedwrYlNpY_E_n-24">
          <mxGeometry width="50" height="50" relative="1" as="geometry">
            <mxPoint x="1750" y="210" as="sourcePoint" />
            <mxPoint x="1500" y="130" as="targetPoint" />
          </mxGeometry>
        </mxCell>
        <mxCell id="rMuPhSQedwrYlNpY_E_n-35" value="" style="endArrow=classic;startArrow=classic;html=1;rounded=0;entryX=0.25;entryY=1;entryDx=0;entryDy=0;fillColor=#dae8fc;strokeColor=#6c8ebf;strokeWidth=3;exitX=0.5;exitY=0;exitDx=0;exitDy=0;" edge="1" parent="1" source="rMuPhSQedwrYlNpY_E_n-26" target="rMuPhSQedwrYlNpY_E_n-25">
          <mxGeometry width="50" height="50" relative="1" as="geometry">
            <mxPoint x="1500" y="200" as="sourcePoint" />
            <mxPoint x="1760" y="130" as="targetPoint" />
          </mxGeometry>
        </mxCell>
        <mxCell id="rMuPhSQedwrYlNpY_E_n-36" value="" style="endArrow=classic;startArrow=classic;html=1;rounded=0;entryX=0.75;entryY=1;entryDx=0;entryDy=0;exitX=0.5;exitY=0;exitDx=0;exitDy=0;fillColor=#dae8fc;strokeColor=#6c8ebf;strokeWidth=3;" edge="1" parent="1" source="rMuPhSQedwrYlNpY_E_n-27" target="rMuPhSQedwrYlNpY_E_n-24">
          <mxGeometry width="50" height="50" relative="1" as="geometry">
            <mxPoint x="1830" y="210" as="sourcePoint" />
            <mxPoint x="1660" y="130" as="targetPoint" />
          </mxGeometry>
        </mxCell>
        <mxCell id="rMuPhSQedwrYlNpY_E_n-37" value="" style="endArrow=classic;startArrow=classic;html=1;rounded=0;entryX=0.75;entryY=1;entryDx=0;entryDy=0;exitX=0.5;exitY=0;exitDx=0;exitDy=0;fillColor=#dae8fc;strokeColor=#6c8ebf;strokeWidth=3;" edge="1" parent="1" source="rMuPhSQedwrYlNpY_E_n-27" target="rMuPhSQedwrYlNpY_E_n-25">
          <mxGeometry width="50" height="50" relative="1" as="geometry">
            <mxPoint x="1910" y="210" as="sourcePoint" />
            <mxPoint x="1820" y="130" as="targetPoint" />
          </mxGeometry>
        </mxCell>
        <mxCell id="rMuPhSQedwrYlNpY_E_n-38" value="" style="endArrow=none;dashed=1;html=1;rounded=0;dashPattern=8 8;strokeWidth=5;" edge="1" parent="1">
          <mxGeometry width="50" height="50" relative="1" as="geometry">
            <mxPoint x="910" y="200" as="sourcePoint" />
            <mxPoint x="1180" y="200" as="targetPoint" />
          </mxGeometry>
        </mxCell>
        <mxCell id="rMuPhSQedwrYlNpY_E_n-39" value="L2 SWITCH0" style="rounded=0;whiteSpace=wrap;html=1;" vertex="1" parent="1">
          <mxGeometry x="120" y="560" width="320" height="40" as="geometry" />
        </mxCell>
        <mxCell id="rMuPhSQedwrYlNpY_E_n-40" value="L2 SWITCH1" style="rounded=0;whiteSpace=wrap;html=1;" vertex="1" parent="1">
          <mxGeometry x="560" y="560" width="320" height="40" as="geometry" />
        </mxCell>
        <mxCell id="rMuPhSQedwrYlNpY_E_n-41" value="L2 SWITCH 18" style="rounded=0;whiteSpace=wrap;html=1;" vertex="1" parent="1">
          <mxGeometry x="1200" y="560" width="320" height="40" as="geometry" />
        </mxCell>
        <mxCell id="rMuPhSQedwrYlNpY_E_n-42" value="L2 SWITCH 19" style="rounded=0;whiteSpace=wrap;html=1;" vertex="1" parent="1">
          <mxGeometry x="1640" y="560" width="320" height="40" as="geometry" />
        </mxCell>
        <mxCell id="rMuPhSQedwrYlNpY_E_n-43" value="" style="endArrow=classic;startArrow=classic;html=1;rounded=0;entryX=0.5;entryY=1;entryDx=0;entryDy=0;exitX=0.5;exitY=0;exitDx=0;exitDy=0;fillColor=#e1d5e7;strokeColor=#9673a6;strokeWidth=3;dashed=1;dashPattern=8 8;" edge="1" parent="1" source="rMuPhSQedwrYlNpY_E_n-39" target="rMuPhSQedwrYlNpY_E_n-7">
          <mxGeometry width="50" height="50" relative="1" as="geometry">
            <mxPoint x="630" y="290" as="sourcePoint" />
            <mxPoint x="140" y="130" as="targetPoint" />
          </mxGeometry>
        </mxCell>
        <mxCell id="rMuPhSQedwrYlNpY_E_n-44" value="" style="endArrow=classic;startArrow=classic;html=1;rounded=0;entryX=0.5;entryY=1;entryDx=0;entryDy=0;exitX=0.5;exitY=0;exitDx=0;exitDy=0;fillColor=#e1d5e7;strokeColor=#9673a6;strokeWidth=3;dashed=1;dashPattern=8 8;" edge="1" parent="1" source="rMuPhSQedwrYlNpY_E_n-40" target="rMuPhSQedwrYlNpY_E_n-7">
          <mxGeometry width="50" height="50" relative="1" as="geometry">
            <mxPoint x="370" y="570" as="sourcePoint" />
            <mxPoint x="230" y="330" as="targetPoint" />
          </mxGeometry>
        </mxCell>
        <mxCell id="rMuPhSQedwrYlNpY_E_n-45" value="" style="endArrow=classic;startArrow=classic;html=1;rounded=0;entryX=0.5;entryY=1;entryDx=0;entryDy=0;exitX=0.5;exitY=0;exitDx=0;exitDy=0;fillColor=#e1d5e7;strokeColor=#9673a6;strokeWidth=3;dashed=1;dashPattern=8 8;" edge="1" parent="1" source="rMuPhSQedwrYlNpY_E_n-41" target="rMuPhSQedwrYlNpY_E_n-7">
          <mxGeometry width="50" height="50" relative="1" as="geometry">
            <mxPoint x="810" y="570" as="sourcePoint" />
            <mxPoint x="230" y="330" as="targetPoint" />
          </mxGeometry>
        </mxCell>
        <mxCell id="rMuPhSQedwrYlNpY_E_n-46" value="" style="endArrow=classic;startArrow=classic;html=1;rounded=0;entryX=0.5;entryY=1;entryDx=0;entryDy=0;exitX=0.5;exitY=0;exitDx=0;exitDy=0;fillColor=#e1d5e7;strokeColor=#9673a6;strokeWidth=3;dashed=1;dashPattern=8 8;" edge="1" parent="1" source="rMuPhSQedwrYlNpY_E_n-42" target="rMuPhSQedwrYlNpY_E_n-7">
          <mxGeometry width="50" height="50" relative="1" as="geometry">
            <mxPoint x="1370" y="570" as="sourcePoint" />
            <mxPoint x="230" y="330" as="targetPoint" />
          </mxGeometry>
        </mxCell>
        <mxCell id="rMuPhSQedwrYlNpY_E_n-47" value="" style="endArrow=none;dashed=1;html=1;rounded=0;dashPattern=8 8;strokeWidth=5;" edge="1" parent="1">
          <mxGeometry width="50" height="50" relative="1" as="geometry">
            <mxPoint x="910" y="579.23" as="sourcePoint" />
            <mxPoint x="1180" y="579.23" as="targetPoint" />
          </mxGeometry>
        </mxCell>
        <mxCell id="rMuPhSQedwrYlNpY_E_n-48" value="" style="endArrow=classic;startArrow=classic;html=1;rounded=0;entryX=0.5;entryY=1;entryDx=0;entryDy=0;exitX=0.5;exitY=0;exitDx=0;exitDy=0;fillColor=#e1d5e7;strokeColor=#9673a6;strokeWidth=3;dashed=1;dashPattern=8 8;" edge="1" parent="1" source="rMuPhSQedwrYlNpY_E_n-39" target="rMuPhSQedwrYlNpY_E_n-8">
          <mxGeometry width="50" height="50" relative="1" as="geometry">
            <mxPoint x="290" y="570" as="sourcePoint" />
            <mxPoint x="230" y="330" as="targetPoint" />
          </mxGeometry>
        </mxCell>
        <mxCell id="rMuPhSQedwrYlNpY_E_n-49" value="" style="endArrow=classic;startArrow=classic;html=1;rounded=0;entryX=0.5;entryY=1;entryDx=0;entryDy=0;fillColor=#e1d5e7;strokeColor=#9673a6;strokeWidth=3;dashed=1;dashPattern=8 8;" edge="1" parent="1" target="rMuPhSQedwrYlNpY_E_n-26">
          <mxGeometry width="50" height="50" relative="1" as="geometry">
            <mxPoint x="280" y="560" as="sourcePoint" />
            <mxPoint x="630" y="330" as="targetPoint" />
          </mxGeometry>
        </mxCell>
        <mxCell id="rMuPhSQedwrYlNpY_E_n-50" value="" style="endArrow=classic;startArrow=classic;html=1;rounded=0;entryX=0.5;entryY=1;entryDx=0;entryDy=0;fillColor=#e1d5e7;strokeColor=#9673a6;strokeWidth=3;exitX=0.5;exitY=0;exitDx=0;exitDy=0;dashed=1;dashPattern=8 8;" edge="1" parent="1" source="rMuPhSQedwrYlNpY_E_n-39" target="rMuPhSQedwrYlNpY_E_n-27">
          <mxGeometry width="50" height="50" relative="1" as="geometry">
            <mxPoint x="280" y="560" as="sourcePoint" />
            <mxPoint x="1430" y="330" as="targetPoint" />
          </mxGeometry>
        </mxCell>
        <mxCell id="rMuPhSQedwrYlNpY_E_n-51" value="" style="endArrow=classic;startArrow=classic;html=1;rounded=0;entryX=0.5;entryY=1;entryDx=0;entryDy=0;fillColor=#e1d5e7;strokeColor=#9673a6;strokeWidth=3;dashed=1;dashPattern=8 8;" edge="1" parent="1" source="rMuPhSQedwrYlNpY_E_n-40" target="rMuPhSQedwrYlNpY_E_n-8">
          <mxGeometry width="50" height="50" relative="1" as="geometry">
            <mxPoint x="290" y="570" as="sourcePoint" />
            <mxPoint x="1430" y="330" as="targetPoint" />
          </mxGeometry>
        </mxCell>
        <mxCell id="rMuPhSQedwrYlNpY_E_n-52" value="" style="endArrow=classic;startArrow=classic;html=1;rounded=0;entryX=0.5;entryY=1;entryDx=0;entryDy=0;fillColor=#e1d5e7;strokeColor=#9673a6;strokeWidth=3;exitX=0.5;exitY=0;exitDx=0;exitDy=0;dashed=1;dashPattern=8 8;" edge="1" parent="1" source="rMuPhSQedwrYlNpY_E_n-40" target="rMuPhSQedwrYlNpY_E_n-26">
          <mxGeometry width="50" height="50" relative="1" as="geometry">
            <mxPoint x="722" y="570" as="sourcePoint" />
            <mxPoint x="630" y="330" as="targetPoint" />
          </mxGeometry>
        </mxCell>
        <mxCell id="rMuPhSQedwrYlNpY_E_n-53" value="" style="endArrow=classic;startArrow=classic;html=1;rounded=0;entryX=0.5;entryY=1;entryDx=0;entryDy=0;fillColor=#e1d5e7;strokeColor=#9673a6;strokeWidth=3;exitX=0.5;exitY=0;exitDx=0;exitDy=0;dashed=1;dashPattern=8 8;" edge="1" parent="1" source="rMuPhSQedwrYlNpY_E_n-40" target="rMuPhSQedwrYlNpY_E_n-27">
          <mxGeometry width="50" height="50" relative="1" as="geometry">
            <mxPoint x="730" y="570" as="sourcePoint" />
            <mxPoint x="1430" y="330" as="targetPoint" />
          </mxGeometry>
        </mxCell>
        <mxCell id="rMuPhSQedwrYlNpY_E_n-54" value="" style="endArrow=classic;startArrow=classic;html=1;rounded=0;entryX=0.5;entryY=1;entryDx=0;entryDy=0;fillColor=#e1d5e7;strokeColor=#9673a6;strokeWidth=3;exitX=0.5;exitY=0;exitDx=0;exitDy=0;dashed=1;dashPattern=8 8;" edge="1" parent="1" source="rMuPhSQedwrYlNpY_E_n-41" target="rMuPhSQedwrYlNpY_E_n-26">
          <mxGeometry width="50" height="50" relative="1" as="geometry">
            <mxPoint x="722" y="570" as="sourcePoint" />
            <mxPoint x="630" y="330" as="targetPoint" />
          </mxGeometry>
        </mxCell>
        <mxCell id="rMuPhSQedwrYlNpY_E_n-55" value="" style="endArrow=classic;startArrow=classic;html=1;rounded=0;entryX=0.5;entryY=1;entryDx=0;entryDy=0;fillColor=#e1d5e7;strokeColor=#9673a6;strokeWidth=3;exitX=0.5;exitY=0;exitDx=0;exitDy=0;dashed=1;dashPattern=8 8;" edge="1" parent="1" source="rMuPhSQedwrYlNpY_E_n-42" target="rMuPhSQedwrYlNpY_E_n-27">
          <mxGeometry width="50" height="50" relative="1" as="geometry">
            <mxPoint x="1370" y="570" as="sourcePoint" />
            <mxPoint x="1430" y="330" as="targetPoint" />
          </mxGeometry>
        </mxCell>
        <mxCell id="rMuPhSQedwrYlNpY_E_n-56" value="" style="endArrow=classic;startArrow=classic;html=1;rounded=0;entryX=0.5;entryY=1;entryDx=0;entryDy=0;fillColor=#e1d5e7;strokeColor=#9673a6;strokeWidth=3;exitX=0.5;exitY=0;exitDx=0;exitDy=0;dashed=1;dashPattern=8 8;" edge="1" parent="1" source="rMuPhSQedwrYlNpY_E_n-41" target="rMuPhSQedwrYlNpY_E_n-27">
          <mxGeometry width="50" height="50" relative="1" as="geometry">
            <mxPoint x="1810" y="570" as="sourcePoint" />
            <mxPoint x="1830" y="330" as="targetPoint" />
          </mxGeometry>
        </mxCell>
        <mxCell id="rMuPhSQedwrYlNpY_E_n-57" value="" style="endArrow=classic;startArrow=classic;html=1;rounded=0;entryX=0.5;entryY=1;entryDx=0;entryDy=0;fillColor=#e1d5e7;strokeColor=#9673a6;strokeWidth=3;exitX=0.5;exitY=0;exitDx=0;exitDy=0;dashed=1;dashPattern=8 8;" edge="1" parent="1" source="rMuPhSQedwrYlNpY_E_n-41" target="rMuPhSQedwrYlNpY_E_n-8">
          <mxGeometry width="50" height="50" relative="1" as="geometry">
            <mxPoint x="1310" y="460" as="sourcePoint" />
            <mxPoint x="1830" y="330" as="targetPoint" />
          </mxGeometry>
        </mxCell>
        <mxCell id="rMuPhSQedwrYlNpY_E_n-58" value="" style="endArrow=classic;startArrow=classic;html=1;rounded=0;entryX=0.5;entryY=1;entryDx=0;entryDy=0;fillColor=#e1d5e7;strokeColor=#9673a6;strokeWidth=3;exitX=0.5;exitY=0;exitDx=0;exitDy=0;dashed=1;dashPattern=8 8;" edge="1" parent="1" source="rMuPhSQedwrYlNpY_E_n-42" target="rMuPhSQedwrYlNpY_E_n-8">
          <mxGeometry width="50" height="50" relative="1" as="geometry">
            <mxPoint x="1370" y="570" as="sourcePoint" />
            <mxPoint x="630" y="330" as="targetPoint" />
          </mxGeometry>
        </mxCell>
        <mxCell id="rMuPhSQedwrYlNpY_E_n-59" value="" style="endArrow=classic;startArrow=classic;html=1;rounded=0;entryX=0.5;entryY=1;entryDx=0;entryDy=0;fillColor=#e1d5e7;strokeColor=#9673a6;strokeWidth=3;exitX=0.5;exitY=0;exitDx=0;exitDy=0;dashed=1;dashPattern=8 8;" edge="1" parent="1" source="rMuPhSQedwrYlNpY_E_n-42" target="rMuPhSQedwrYlNpY_E_n-26">
          <mxGeometry width="50" height="50" relative="1" as="geometry">
            <mxPoint x="1370" y="570" as="sourcePoint" />
            <mxPoint x="1430" y="330" as="targetPoint" />
          </mxGeometry>
        </mxCell>
        <mxCell id="rMuPhSQedwrYlNpY_E_n-61" value="&lt;font style=&quot;font-size: 20px;&quot;&gt;Line with 4 200G/s&lt;/font&gt;" style="endArrow=classic;startArrow=classic;html=1;rounded=0;entryX=0.308;entryY=1.025;entryDx=0;entryDy=0;entryPerimeter=0;fillColor=#dae8fc;strokeColor=#6c8ebf;strokeWidth=3;" edge="1" parent="1">
          <mxGeometry x="-0.1429" width="50" height="50" relative="1" as="geometry">
            <mxPoint x="2435" y="120" as="sourcePoint" />
            <mxPoint x="2120" y="120" as="targetPoint" />
            <mxPoint as="offset" />
          </mxGeometry>
        </mxCell>
        <mxCell id="rMuPhSQedwrYlNpY_E_n-62" value="&lt;font style=&quot;font-size: 20px;&quot;&gt;Line with 2 200G/s&lt;/font&gt;" style="endArrow=classic;startArrow=classic;html=1;rounded=0;fillColor=#e1d5e7;strokeColor=#9673a6;strokeWidth=3;dashed=1;dashPattern=8 8;" edge="1" parent="1">
          <mxGeometry width="50" height="50" relative="1" as="geometry">
            <mxPoint x="2120" y="200" as="sourcePoint" />
            <mxPoint x="2430" y="200" as="targetPoint" />
          </mxGeometry>
        </mxCell>
        <mxCell id="rMuPhSQedwrYlNpY_E_n-65" value="&lt;h1&gt;硬件需要&lt;/h1&gt;&lt;div style=&quot;font-size: 25px;&quot;&gt;&lt;font style=&quot;font-size: 25px;&quot;&gt;CTX 6 IB&amp;nbsp; &amp;nbsp; &amp;nbsp; &amp;nbsp; &amp;nbsp; &amp;nbsp; &amp;nbsp;800 + 1&lt;/font&gt;&lt;/div&gt;&lt;div style=&quot;font-size: 25px;&quot;&gt;&lt;font style=&quot;font-size: 25px;&quot;&gt;40 port switch&amp;nbsp; &amp;nbsp; &amp;nbsp; 60&lt;/font&gt;&lt;/div&gt;&lt;div style=&quot;font-size: 25px;&quot;&gt;&lt;font style=&quot;font-size: 25px;&quot;&gt;200G Line&amp;nbsp; &amp;nbsp; &amp;nbsp; &amp;nbsp; &amp;nbsp; &amp;nbsp;1600&lt;br&gt;server 1+ Line&lt;/font&gt;&lt;/div&gt;" style="text;html=1;strokeColor=none;fillColor=none;spacing=5;spacingTop=-20;whiteSpace=wrap;overflow=hidden;rounded=0;" vertex="1" parent="1">
          <mxGeometry x="2120" y="280" width="320" height="200" as="geometry" />
        </mxCell>
        <mxCell id="rMuPhSQedwrYlNpY_E_n-66" value="OAM" style="rounded=0;whiteSpace=wrap;html=1;" vertex="1" parent="1">
          <mxGeometry x="280" y="1160" width="120" height="40" as="geometry" />
        </mxCell>
        <mxCell id="rMuPhSQedwrYlNpY_E_n-67" value="OAM" style="rounded=0;whiteSpace=wrap;html=1;" vertex="1" parent="1">
          <mxGeometry x="440" y="1160" width="120" height="40" as="geometry" />
        </mxCell>
        <mxCell id="rMuPhSQedwrYlNpY_E_n-68" value="OAM" style="rounded=0;whiteSpace=wrap;html=1;" vertex="1" parent="1">
          <mxGeometry x="600" y="1160" width="120" height="40" as="geometry" />
        </mxCell>
        <mxCell id="rMuPhSQedwrYlNpY_E_n-69" value="OAM" style="rounded=0;whiteSpace=wrap;html=1;" vertex="1" parent="1">
          <mxGeometry x="760" y="1160" width="120" height="40" as="geometry" />
        </mxCell>
        <mxCell id="rMuPhSQedwrYlNpY_E_n-70" value="OAM" style="rounded=0;whiteSpace=wrap;html=1;" vertex="1" parent="1">
          <mxGeometry x="920" y="1160" width="120" height="40" as="geometry" />
        </mxCell>
        <mxCell id="rMuPhSQedwrYlNpY_E_n-71" value="L1 SWITCH0" style="rounded=0;whiteSpace=wrap;html=1;" vertex="1" parent="1">
          <mxGeometry x="300" y="1360" width="320" height="40" as="geometry" />
        </mxCell>
        <mxCell id="rMuPhSQedwrYlNpY_E_n-72" value="L1 SWITCH1" style="rounded=0;whiteSpace=wrap;html=1;" vertex="1" parent="1">
          <mxGeometry x="700" y="1360" width="320" height="40" as="geometry" />
        </mxCell>
        <mxCell id="rMuPhSQedwrYlNpY_E_n-73" value="" style="endArrow=classic;startArrow=classic;html=1;rounded=0;entryX=0.308;entryY=1.025;entryDx=0;entryDy=0;entryPerimeter=0;exitX=0.5;exitY=0;exitDx=0;exitDy=0;fillColor=#dae8fc;strokeColor=#6c8ebf;strokeWidth=3;" edge="1" parent="1" source="rMuPhSQedwrYlNpY_E_n-71" target="rMuPhSQedwrYlNpY_E_n-66">
          <mxGeometry width="50" height="50" relative="1" as="geometry">
            <mxPoint x="640" y="1690" as="sourcePoint" />
            <mxPoint x="690" y="1640" as="targetPoint" />
          </mxGeometry>
        </mxCell>
        <mxCell id="rMuPhSQedwrYlNpY_E_n-74" value="" style="endArrow=classic;startArrow=classic;html=1;rounded=0;entryX=0.75;entryY=1;entryDx=0;entryDy=0;exitX=0.5;exitY=0;exitDx=0;exitDy=0;fillColor=#dae8fc;strokeColor=#6c8ebf;strokeWidth=3;" edge="1" parent="1" source="rMuPhSQedwrYlNpY_E_n-72" target="rMuPhSQedwrYlNpY_E_n-66">
          <mxGeometry width="50" height="50" relative="1" as="geometry">
            <mxPoint x="390" y="1290" as="sourcePoint" />
            <mxPoint x="327" y="1211" as="targetPoint" />
          </mxGeometry>
        </mxCell>
        <mxCell id="rMuPhSQedwrYlNpY_E_n-75" value="" style="endArrow=classic;startArrow=classic;html=1;rounded=0;entryX=0.25;entryY=1;entryDx=0;entryDy=0;exitX=0.5;exitY=0;exitDx=0;exitDy=0;fillColor=#dae8fc;strokeColor=#6c8ebf;strokeWidth=3;" edge="1" parent="1" source="rMuPhSQedwrYlNpY_E_n-71" target="rMuPhSQedwrYlNpY_E_n-67">
          <mxGeometry width="50" height="50" relative="1" as="geometry">
            <mxPoint x="759" y="1289" as="sourcePoint" />
            <mxPoint x="380" y="1210" as="targetPoint" />
          </mxGeometry>
        </mxCell>
        <mxCell id="rMuPhSQedwrYlNpY_E_n-76" value="" style="endArrow=classic;startArrow=classic;html=1;rounded=0;entryX=0.75;entryY=1;entryDx=0;entryDy=0;exitX=0.5;exitY=0;exitDx=0;exitDy=0;fillColor=#dae8fc;strokeColor=#6c8ebf;strokeWidth=3;" edge="1" parent="1" source="rMuPhSQedwrYlNpY_E_n-72" target="rMuPhSQedwrYlNpY_E_n-67">
          <mxGeometry width="50" height="50" relative="1" as="geometry">
            <mxPoint x="759" y="1289" as="sourcePoint" />
            <mxPoint x="380" y="1210" as="targetPoint" />
          </mxGeometry>
        </mxCell>
        <mxCell id="rMuPhSQedwrYlNpY_E_n-77" value="" style="endArrow=classic;startArrow=classic;html=1;rounded=0;entryX=0.25;entryY=1;entryDx=0;entryDy=0;exitX=0.5;exitY=0;exitDx=0;exitDy=0;fillColor=#dae8fc;strokeColor=#6c8ebf;strokeWidth=3;" edge="1" parent="1" source="rMuPhSQedwrYlNpY_E_n-71" target="rMuPhSQedwrYlNpY_E_n-68">
          <mxGeometry width="50" height="50" relative="1" as="geometry">
            <mxPoint x="790" y="1290" as="sourcePoint" />
            <mxPoint x="380" y="1210" as="targetPoint" />
          </mxGeometry>
        </mxCell>
        <mxCell id="rMuPhSQedwrYlNpY_E_n-78" value="" style="endArrow=classic;startArrow=classic;html=1;rounded=0;entryX=0.75;entryY=1;entryDx=0;entryDy=0;exitX=0.5;exitY=0;exitDx=0;exitDy=0;fillColor=#dae8fc;strokeColor=#6c8ebf;strokeWidth=3;" edge="1" parent="1" source="rMuPhSQedwrYlNpY_E_n-72" target="rMuPhSQedwrYlNpY_E_n-68">
          <mxGeometry width="50" height="50" relative="1" as="geometry">
            <mxPoint x="790" y="1290" as="sourcePoint" />
            <mxPoint x="380" y="1210" as="targetPoint" />
          </mxGeometry>
        </mxCell>
        <mxCell id="rMuPhSQedwrYlNpY_E_n-79" value="" style="endArrow=classic;startArrow=classic;html=1;rounded=0;entryX=0.25;entryY=1;entryDx=0;entryDy=0;exitX=0.5;exitY=0;exitDx=0;exitDy=0;fillColor=#dae8fc;strokeColor=#6c8ebf;strokeWidth=3;" edge="1" parent="1" source="rMuPhSQedwrYlNpY_E_n-71" target="rMuPhSQedwrYlNpY_E_n-69">
          <mxGeometry width="50" height="50" relative="1" as="geometry">
            <mxPoint x="790" y="1290" as="sourcePoint" />
            <mxPoint x="540" y="1210" as="targetPoint" />
          </mxGeometry>
        </mxCell>
        <mxCell id="rMuPhSQedwrYlNpY_E_n-80" value="" style="endArrow=classic;startArrow=classic;html=1;rounded=0;entryX=0.25;entryY=1;entryDx=0;entryDy=0;fillColor=#dae8fc;strokeColor=#6c8ebf;strokeWidth=3;exitX=0.5;exitY=0;exitDx=0;exitDy=0;" edge="1" parent="1" source="rMuPhSQedwrYlNpY_E_n-71" target="rMuPhSQedwrYlNpY_E_n-70">
          <mxGeometry width="50" height="50" relative="1" as="geometry">
            <mxPoint x="540" y="1280" as="sourcePoint" />
            <mxPoint x="800" y="1210" as="targetPoint" />
          </mxGeometry>
        </mxCell>
        <mxCell id="rMuPhSQedwrYlNpY_E_n-81" value="" style="endArrow=classic;startArrow=classic;html=1;rounded=0;entryX=0.75;entryY=1;entryDx=0;entryDy=0;exitX=0.5;exitY=0;exitDx=0;exitDy=0;fillColor=#dae8fc;strokeColor=#6c8ebf;strokeWidth=3;" edge="1" parent="1" source="rMuPhSQedwrYlNpY_E_n-72" target="rMuPhSQedwrYlNpY_E_n-69">
          <mxGeometry width="50" height="50" relative="1" as="geometry">
            <mxPoint x="870" y="1290" as="sourcePoint" />
            <mxPoint x="700" y="1210" as="targetPoint" />
          </mxGeometry>
        </mxCell>
        <mxCell id="rMuPhSQedwrYlNpY_E_n-82" value="" style="endArrow=classic;startArrow=classic;html=1;rounded=0;entryX=0.75;entryY=1;entryDx=0;entryDy=0;exitX=0.5;exitY=0;exitDx=0;exitDy=0;fillColor=#dae8fc;strokeColor=#6c8ebf;strokeWidth=3;" edge="1" parent="1" source="rMuPhSQedwrYlNpY_E_n-72" target="rMuPhSQedwrYlNpY_E_n-70">
          <mxGeometry width="50" height="50" relative="1" as="geometry">
            <mxPoint x="950" y="1290" as="sourcePoint" />
            <mxPoint x="860" y="1210" as="targetPoint" />
          </mxGeometry>
        </mxCell>
        <mxCell id="rMuPhSQedwrYlNpY_E_n-83" value="OAM" style="rounded=0;whiteSpace=wrap;html=1;" vertex="1" parent="1">
          <mxGeometry x="1600" y="1160" width="120" height="40" as="geometry" />
        </mxCell>
        <mxCell id="rMuPhSQedwrYlNpY_E_n-84" value="OAM" style="rounded=0;whiteSpace=wrap;html=1;" vertex="1" parent="1">
          <mxGeometry x="1760" y="1160" width="120" height="40" as="geometry" />
        </mxCell>
        <mxCell id="rMuPhSQedwrYlNpY_E_n-85" value="OAM" style="rounded=0;whiteSpace=wrap;html=1;" vertex="1" parent="1">
          <mxGeometry x="1920" y="1160" width="120" height="40" as="geometry" />
        </mxCell>
        <mxCell id="rMuPhSQedwrYlNpY_E_n-86" value="OAM" style="rounded=0;whiteSpace=wrap;html=1;" vertex="1" parent="1">
          <mxGeometry x="2080" y="1160" width="120" height="40" as="geometry" />
        </mxCell>
        <mxCell id="rMuPhSQedwrYlNpY_E_n-87" value="OAM" style="rounded=0;whiteSpace=wrap;html=1;" vertex="1" parent="1">
          <mxGeometry x="2240" y="1160" width="120" height="40" as="geometry" />
        </mxCell>
        <mxCell id="rMuPhSQedwrYlNpY_E_n-88" value="L1 SWITCH 22" style="rounded=0;whiteSpace=wrap;html=1;" vertex="1" parent="1">
          <mxGeometry x="1620" y="1360" width="320" height="40" as="geometry" />
        </mxCell>
        <mxCell id="rMuPhSQedwrYlNpY_E_n-89" value="L1 SWITCH 23" style="rounded=0;whiteSpace=wrap;html=1;" vertex="1" parent="1">
          <mxGeometry x="2020" y="1360" width="320" height="40" as="geometry" />
        </mxCell>
        <mxCell id="rMuPhSQedwrYlNpY_E_n-90" value="" style="endArrow=classic;startArrow=classic;html=1;rounded=0;entryX=0.308;entryY=1.025;entryDx=0;entryDy=0;entryPerimeter=0;exitX=0.5;exitY=0;exitDx=0;exitDy=0;fillColor=#dae8fc;strokeColor=#6c8ebf;strokeWidth=3;" edge="1" parent="1" source="rMuPhSQedwrYlNpY_E_n-88" target="rMuPhSQedwrYlNpY_E_n-83">
          <mxGeometry width="50" height="50" relative="1" as="geometry">
            <mxPoint x="1960" y="1690" as="sourcePoint" />
            <mxPoint x="2010" y="1640" as="targetPoint" />
          </mxGeometry>
        </mxCell>
        <mxCell id="rMuPhSQedwrYlNpY_E_n-91" value="" style="endArrow=classic;startArrow=classic;html=1;rounded=0;entryX=0.75;entryY=1;entryDx=0;entryDy=0;exitX=0.5;exitY=0;exitDx=0;exitDy=0;fillColor=#dae8fc;strokeColor=#6c8ebf;strokeWidth=3;" edge="1" parent="1" source="rMuPhSQedwrYlNpY_E_n-89" target="rMuPhSQedwrYlNpY_E_n-83">
          <mxGeometry width="50" height="50" relative="1" as="geometry">
            <mxPoint x="1710" y="1290" as="sourcePoint" />
            <mxPoint x="1647" y="1211" as="targetPoint" />
          </mxGeometry>
        </mxCell>
        <mxCell id="rMuPhSQedwrYlNpY_E_n-92" value="" style="endArrow=classic;startArrow=classic;html=1;rounded=0;entryX=0.25;entryY=1;entryDx=0;entryDy=0;exitX=0.5;exitY=0;exitDx=0;exitDy=0;fillColor=#dae8fc;strokeColor=#6c8ebf;strokeWidth=3;" edge="1" parent="1" source="rMuPhSQedwrYlNpY_E_n-88" target="rMuPhSQedwrYlNpY_E_n-84">
          <mxGeometry width="50" height="50" relative="1" as="geometry">
            <mxPoint x="2079" y="1289" as="sourcePoint" />
            <mxPoint x="1700" y="1210" as="targetPoint" />
          </mxGeometry>
        </mxCell>
        <mxCell id="rMuPhSQedwrYlNpY_E_n-93" value="" style="endArrow=classic;startArrow=classic;html=1;rounded=0;entryX=0.75;entryY=1;entryDx=0;entryDy=0;exitX=0.5;exitY=0;exitDx=0;exitDy=0;fillColor=#dae8fc;strokeColor=#6c8ebf;strokeWidth=3;" edge="1" parent="1" source="rMuPhSQedwrYlNpY_E_n-89" target="rMuPhSQedwrYlNpY_E_n-84">
          <mxGeometry width="50" height="50" relative="1" as="geometry">
            <mxPoint x="2079" y="1289" as="sourcePoint" />
            <mxPoint x="1700" y="1210" as="targetPoint" />
          </mxGeometry>
        </mxCell>
        <mxCell id="rMuPhSQedwrYlNpY_E_n-94" value="" style="endArrow=classic;startArrow=classic;html=1;rounded=0;entryX=0.25;entryY=1;entryDx=0;entryDy=0;exitX=0.5;exitY=0;exitDx=0;exitDy=0;fillColor=#dae8fc;strokeColor=#6c8ebf;strokeWidth=3;" edge="1" parent="1" source="rMuPhSQedwrYlNpY_E_n-88" target="rMuPhSQedwrYlNpY_E_n-85">
          <mxGeometry width="50" height="50" relative="1" as="geometry">
            <mxPoint x="2110" y="1290" as="sourcePoint" />
            <mxPoint x="1700" y="1210" as="targetPoint" />
          </mxGeometry>
        </mxCell>
        <mxCell id="rMuPhSQedwrYlNpY_E_n-95" value="" style="endArrow=classic;startArrow=classic;html=1;rounded=0;entryX=0.75;entryY=1;entryDx=0;entryDy=0;exitX=0.5;exitY=0;exitDx=0;exitDy=0;fillColor=#dae8fc;strokeColor=#6c8ebf;strokeWidth=3;" edge="1" parent="1" source="rMuPhSQedwrYlNpY_E_n-89" target="rMuPhSQedwrYlNpY_E_n-85">
          <mxGeometry width="50" height="50" relative="1" as="geometry">
            <mxPoint x="2110" y="1290" as="sourcePoint" />
            <mxPoint x="1700" y="1210" as="targetPoint" />
          </mxGeometry>
        </mxCell>
        <mxCell id="rMuPhSQedwrYlNpY_E_n-96" value="" style="endArrow=classic;startArrow=classic;html=1;rounded=0;entryX=0.25;entryY=1;entryDx=0;entryDy=0;exitX=0.5;exitY=0;exitDx=0;exitDy=0;fillColor=#dae8fc;strokeColor=#6c8ebf;strokeWidth=3;" edge="1" parent="1" source="rMuPhSQedwrYlNpY_E_n-88" target="rMuPhSQedwrYlNpY_E_n-86">
          <mxGeometry width="50" height="50" relative="1" as="geometry">
            <mxPoint x="2110" y="1290" as="sourcePoint" />
            <mxPoint x="1860" y="1210" as="targetPoint" />
          </mxGeometry>
        </mxCell>
        <mxCell id="rMuPhSQedwrYlNpY_E_n-97" value="" style="endArrow=classic;startArrow=classic;html=1;rounded=0;entryX=0.25;entryY=1;entryDx=0;entryDy=0;fillColor=#dae8fc;strokeColor=#6c8ebf;strokeWidth=3;exitX=0.5;exitY=0;exitDx=0;exitDy=0;" edge="1" parent="1" source="rMuPhSQedwrYlNpY_E_n-88" target="rMuPhSQedwrYlNpY_E_n-87">
          <mxGeometry width="50" height="50" relative="1" as="geometry">
            <mxPoint x="1860" y="1280" as="sourcePoint" />
            <mxPoint x="2120" y="1210" as="targetPoint" />
          </mxGeometry>
        </mxCell>
        <mxCell id="rMuPhSQedwrYlNpY_E_n-98" value="" style="endArrow=classic;startArrow=classic;html=1;rounded=0;entryX=0.75;entryY=1;entryDx=0;entryDy=0;exitX=0.5;exitY=0;exitDx=0;exitDy=0;fillColor=#dae8fc;strokeColor=#6c8ebf;strokeWidth=3;" edge="1" parent="1" source="rMuPhSQedwrYlNpY_E_n-89" target="rMuPhSQedwrYlNpY_E_n-86">
          <mxGeometry width="50" height="50" relative="1" as="geometry">
            <mxPoint x="2190" y="1290" as="sourcePoint" />
            <mxPoint x="2020" y="1210" as="targetPoint" />
          </mxGeometry>
        </mxCell>
        <mxCell id="rMuPhSQedwrYlNpY_E_n-99" value="" style="endArrow=classic;startArrow=classic;html=1;rounded=0;entryX=0.75;entryY=1;entryDx=0;entryDy=0;exitX=0.5;exitY=0;exitDx=0;exitDy=0;fillColor=#dae8fc;strokeColor=#6c8ebf;strokeWidth=3;" edge="1" parent="1" source="rMuPhSQedwrYlNpY_E_n-89" target="rMuPhSQedwrYlNpY_E_n-87">
          <mxGeometry width="50" height="50" relative="1" as="geometry">
            <mxPoint x="2270" y="1290" as="sourcePoint" />
            <mxPoint x="2180" y="1210" as="targetPoint" />
          </mxGeometry>
        </mxCell>
        <mxCell id="rMuPhSQedwrYlNpY_E_n-100" value="" style="endArrow=none;dashed=1;html=1;rounded=0;dashPattern=8 8;strokeWidth=5;" edge="1" parent="1">
          <mxGeometry width="50" height="50" relative="1" as="geometry">
            <mxPoint x="1150" y="1280" as="sourcePoint" />
            <mxPoint x="1420" y="1280" as="targetPoint" />
          </mxGeometry>
        </mxCell>
        <mxCell id="rMuPhSQedwrYlNpY_E_n-101" value="L2 SWITCH0" style="rounded=0;whiteSpace=wrap;html=1;" vertex="1" parent="1">
          <mxGeometry x="360" y="1640" width="320" height="40" as="geometry" />
        </mxCell>
        <mxCell id="rMuPhSQedwrYlNpY_E_n-102" value="L2 SWITCH1" style="rounded=0;whiteSpace=wrap;html=1;" vertex="1" parent="1">
          <mxGeometry x="800" y="1640" width="320" height="40" as="geometry" />
        </mxCell>
        <mxCell id="rMuPhSQedwrYlNpY_E_n-103" value="L2 SWITCH 6" style="rounded=0;whiteSpace=wrap;html=1;" vertex="1" parent="1">
          <mxGeometry x="1560" y="1640" width="320" height="40" as="geometry" />
        </mxCell>
        <mxCell id="rMuPhSQedwrYlNpY_E_n-104" value="L2 SWITCH 8" style="rounded=0;whiteSpace=wrap;html=1;" vertex="1" parent="1">
          <mxGeometry x="2000" y="1640" width="320" height="40" as="geometry" />
        </mxCell>
        <mxCell id="rMuPhSQedwrYlNpY_E_n-105" value="" style="endArrow=classic;startArrow=classic;html=1;rounded=0;entryX=0.5;entryY=1;entryDx=0;entryDy=0;exitX=0.5;exitY=0;exitDx=0;exitDy=0;fillColor=#e1d5e7;strokeColor=#9673a6;strokeWidth=3;dashed=1;dashPattern=8 8;" edge="1" parent="1" source="rMuPhSQedwrYlNpY_E_n-101" target="rMuPhSQedwrYlNpY_E_n-71">
          <mxGeometry width="50" height="50" relative="1" as="geometry">
            <mxPoint x="870" y="1370" as="sourcePoint" />
            <mxPoint x="380" y="1210" as="targetPoint" />
          </mxGeometry>
        </mxCell>
        <mxCell id="rMuPhSQedwrYlNpY_E_n-106" value="" style="endArrow=classic;startArrow=classic;html=1;rounded=0;entryX=0.5;entryY=1;entryDx=0;entryDy=0;exitX=0.5;exitY=0;exitDx=0;exitDy=0;fillColor=#e1d5e7;strokeColor=#9673a6;strokeWidth=3;dashed=1;dashPattern=8 8;" edge="1" parent="1" source="rMuPhSQedwrYlNpY_E_n-102" target="rMuPhSQedwrYlNpY_E_n-71">
          <mxGeometry width="50" height="50" relative="1" as="geometry">
            <mxPoint x="610" y="1650" as="sourcePoint" />
            <mxPoint x="470" y="1410" as="targetPoint" />
          </mxGeometry>
        </mxCell>
        <mxCell id="rMuPhSQedwrYlNpY_E_n-107" value="" style="endArrow=classic;startArrow=classic;html=1;rounded=0;entryX=0.5;entryY=1;entryDx=0;entryDy=0;exitX=0.5;exitY=0;exitDx=0;exitDy=0;fillColor=#e1d5e7;strokeColor=#9673a6;strokeWidth=3;dashed=1;dashPattern=8 8;" edge="1" parent="1" source="rMuPhSQedwrYlNpY_E_n-103" target="rMuPhSQedwrYlNpY_E_n-71">
          <mxGeometry width="50" height="50" relative="1" as="geometry">
            <mxPoint x="1050" y="1650" as="sourcePoint" />
            <mxPoint x="470" y="1410" as="targetPoint" />
          </mxGeometry>
        </mxCell>
        <mxCell id="rMuPhSQedwrYlNpY_E_n-108" value="" style="endArrow=classic;startArrow=classic;html=1;rounded=0;entryX=0.5;entryY=1;entryDx=0;entryDy=0;exitX=0.5;exitY=0;exitDx=0;exitDy=0;fillColor=#e1d5e7;strokeColor=#9673a6;strokeWidth=3;dashed=1;dashPattern=8 8;" edge="1" parent="1" source="rMuPhSQedwrYlNpY_E_n-104" target="rMuPhSQedwrYlNpY_E_n-71">
          <mxGeometry width="50" height="50" relative="1" as="geometry">
            <mxPoint x="1610" y="1650" as="sourcePoint" />
            <mxPoint x="470" y="1410" as="targetPoint" />
          </mxGeometry>
        </mxCell>
        <mxCell id="rMuPhSQedwrYlNpY_E_n-109" value="" style="endArrow=none;dashed=1;html=1;rounded=0;dashPattern=8 8;strokeWidth=5;" edge="1" parent="1">
          <mxGeometry width="50" height="50" relative="1" as="geometry">
            <mxPoint x="1150" y="1659.23" as="sourcePoint" />
            <mxPoint x="1420" y="1659.23" as="targetPoint" />
          </mxGeometry>
        </mxCell>
        <mxCell id="rMuPhSQedwrYlNpY_E_n-110" value="" style="endArrow=classic;startArrow=classic;html=1;rounded=0;entryX=0.5;entryY=1;entryDx=0;entryDy=0;exitX=0.5;exitY=0;exitDx=0;exitDy=0;fillColor=#e1d5e7;strokeColor=#9673a6;strokeWidth=3;dashed=1;dashPattern=8 8;" edge="1" parent="1" source="rMuPhSQedwrYlNpY_E_n-101" target="rMuPhSQedwrYlNpY_E_n-72">
          <mxGeometry width="50" height="50" relative="1" as="geometry">
            <mxPoint x="530" y="1650" as="sourcePoint" />
            <mxPoint x="470" y="1410" as="targetPoint" />
          </mxGeometry>
        </mxCell>
        <mxCell id="rMuPhSQedwrYlNpY_E_n-111" value="" style="endArrow=classic;startArrow=classic;html=1;rounded=0;entryX=0.5;entryY=1;entryDx=0;entryDy=0;fillColor=#e1d5e7;strokeColor=#9673a6;strokeWidth=3;dashed=1;dashPattern=8 8;" edge="1" parent="1" target="rMuPhSQedwrYlNpY_E_n-88">
          <mxGeometry width="50" height="50" relative="1" as="geometry">
            <mxPoint x="520" y="1640" as="sourcePoint" />
            <mxPoint x="870" y="1410" as="targetPoint" />
          </mxGeometry>
        </mxCell>
        <mxCell id="rMuPhSQedwrYlNpY_E_n-112" value="" style="endArrow=classic;startArrow=classic;html=1;rounded=0;entryX=0.5;entryY=1;entryDx=0;entryDy=0;fillColor=#e1d5e7;strokeColor=#9673a6;strokeWidth=3;exitX=0.5;exitY=0;exitDx=0;exitDy=0;dashed=1;dashPattern=8 8;" edge="1" parent="1" source="rMuPhSQedwrYlNpY_E_n-101" target="rMuPhSQedwrYlNpY_E_n-89">
          <mxGeometry width="50" height="50" relative="1" as="geometry">
            <mxPoint x="520" y="1640" as="sourcePoint" />
            <mxPoint x="1670" y="1410" as="targetPoint" />
          </mxGeometry>
        </mxCell>
        <mxCell id="rMuPhSQedwrYlNpY_E_n-113" value="" style="endArrow=classic;startArrow=classic;html=1;rounded=0;entryX=0.5;entryY=1;entryDx=0;entryDy=0;fillColor=#e1d5e7;strokeColor=#9673a6;strokeWidth=3;dashed=1;dashPattern=8 8;" edge="1" parent="1" source="rMuPhSQedwrYlNpY_E_n-102" target="rMuPhSQedwrYlNpY_E_n-72">
          <mxGeometry width="50" height="50" relative="1" as="geometry">
            <mxPoint x="530" y="1650" as="sourcePoint" />
            <mxPoint x="1670" y="1410" as="targetPoint" />
          </mxGeometry>
        </mxCell>
        <mxCell id="rMuPhSQedwrYlNpY_E_n-114" value="" style="endArrow=classic;startArrow=classic;html=1;rounded=0;entryX=0.5;entryY=1;entryDx=0;entryDy=0;fillColor=#e1d5e7;strokeColor=#9673a6;strokeWidth=3;exitX=0.5;exitY=0;exitDx=0;exitDy=0;dashed=1;dashPattern=8 8;" edge="1" parent="1" source="rMuPhSQedwrYlNpY_E_n-102" target="rMuPhSQedwrYlNpY_E_n-88">
          <mxGeometry width="50" height="50" relative="1" as="geometry">
            <mxPoint x="962" y="1650" as="sourcePoint" />
            <mxPoint x="870" y="1410" as="targetPoint" />
          </mxGeometry>
        </mxCell>
        <mxCell id="rMuPhSQedwrYlNpY_E_n-115" value="" style="endArrow=classic;startArrow=classic;html=1;rounded=0;entryX=0.5;entryY=1;entryDx=0;entryDy=0;fillColor=#e1d5e7;strokeColor=#9673a6;strokeWidth=3;exitX=0.5;exitY=0;exitDx=0;exitDy=0;dashed=1;dashPattern=8 8;" edge="1" parent="1" source="rMuPhSQedwrYlNpY_E_n-102" target="rMuPhSQedwrYlNpY_E_n-89">
          <mxGeometry width="50" height="50" relative="1" as="geometry">
            <mxPoint x="970" y="1650" as="sourcePoint" />
            <mxPoint x="1670" y="1410" as="targetPoint" />
          </mxGeometry>
        </mxCell>
        <mxCell id="rMuPhSQedwrYlNpY_E_n-116" value="" style="endArrow=classic;startArrow=classic;html=1;rounded=0;entryX=0.5;entryY=1;entryDx=0;entryDy=0;fillColor=#e1d5e7;strokeColor=#9673a6;strokeWidth=3;exitX=0.5;exitY=0;exitDx=0;exitDy=0;dashed=1;dashPattern=8 8;" edge="1" parent="1" source="rMuPhSQedwrYlNpY_E_n-103" target="rMuPhSQedwrYlNpY_E_n-88">
          <mxGeometry width="50" height="50" relative="1" as="geometry">
            <mxPoint x="1082" y="1650" as="sourcePoint" />
            <mxPoint x="990" y="1410" as="targetPoint" />
          </mxGeometry>
        </mxCell>
        <mxCell id="rMuPhSQedwrYlNpY_E_n-117" value="" style="endArrow=classic;startArrow=classic;html=1;rounded=0;entryX=0.5;entryY=1;entryDx=0;entryDy=0;fillColor=#e1d5e7;strokeColor=#9673a6;strokeWidth=3;exitX=0.5;exitY=0;exitDx=0;exitDy=0;dashed=1;dashPattern=8 8;" edge="1" parent="1" source="rMuPhSQedwrYlNpY_E_n-104" target="rMuPhSQedwrYlNpY_E_n-89">
          <mxGeometry width="50" height="50" relative="1" as="geometry">
            <mxPoint x="1730" y="1650" as="sourcePoint" />
            <mxPoint x="1790" y="1410" as="targetPoint" />
          </mxGeometry>
        </mxCell>
        <mxCell id="rMuPhSQedwrYlNpY_E_n-118" value="" style="endArrow=classic;startArrow=classic;html=1;rounded=0;entryX=0.5;entryY=1;entryDx=0;entryDy=0;fillColor=#e1d5e7;strokeColor=#9673a6;strokeWidth=3;exitX=0.5;exitY=0;exitDx=0;exitDy=0;dashed=1;dashPattern=8 8;" edge="1" parent="1" source="rMuPhSQedwrYlNpY_E_n-103" target="rMuPhSQedwrYlNpY_E_n-89">
          <mxGeometry width="50" height="50" relative="1" as="geometry">
            <mxPoint x="2170" y="1650" as="sourcePoint" />
            <mxPoint x="2190" y="1410" as="targetPoint" />
          </mxGeometry>
        </mxCell>
        <mxCell id="rMuPhSQedwrYlNpY_E_n-119" value="" style="endArrow=classic;startArrow=classic;html=1;rounded=0;entryX=0.5;entryY=1;entryDx=0;entryDy=0;fillColor=#e1d5e7;strokeColor=#9673a6;strokeWidth=3;exitX=0.5;exitY=0;exitDx=0;exitDy=0;dashed=1;dashPattern=8 8;" edge="1" parent="1" source="rMuPhSQedwrYlNpY_E_n-103" target="rMuPhSQedwrYlNpY_E_n-72">
          <mxGeometry width="50" height="50" relative="1" as="geometry">
            <mxPoint x="1550" y="1540" as="sourcePoint" />
            <mxPoint x="2070" y="1410" as="targetPoint" />
          </mxGeometry>
        </mxCell>
        <mxCell id="rMuPhSQedwrYlNpY_E_n-120" value="" style="endArrow=classic;startArrow=classic;html=1;rounded=0;entryX=0.5;entryY=1;entryDx=0;entryDy=0;fillColor=#e1d5e7;strokeColor=#9673a6;strokeWidth=3;exitX=0.5;exitY=0;exitDx=0;exitDy=0;dashed=1;dashPattern=8 8;" edge="1" parent="1" source="rMuPhSQedwrYlNpY_E_n-104" target="rMuPhSQedwrYlNpY_E_n-72">
          <mxGeometry width="50" height="50" relative="1" as="geometry">
            <mxPoint x="1610" y="1650" as="sourcePoint" />
            <mxPoint x="870" y="1410" as="targetPoint" />
          </mxGeometry>
        </mxCell>
        <mxCell id="rMuPhSQedwrYlNpY_E_n-121" value="" style="endArrow=classic;startArrow=classic;html=1;rounded=0;entryX=0.5;entryY=1;entryDx=0;entryDy=0;fillColor=#e1d5e7;strokeColor=#9673a6;strokeWidth=3;exitX=0.5;exitY=0;exitDx=0;exitDy=0;dashed=1;dashPattern=8 8;" edge="1" parent="1" source="rMuPhSQedwrYlNpY_E_n-104" target="rMuPhSQedwrYlNpY_E_n-88">
          <mxGeometry width="50" height="50" relative="1" as="geometry">
            <mxPoint x="1730" y="1650" as="sourcePoint" />
            <mxPoint x="1790" y="1410" as="targetPoint" />
          </mxGeometry>
        </mxCell>
        <mxCell id="rMuPhSQedwrYlNpY_E_n-125" value="OAM" style="rounded=0;whiteSpace=wrap;html=1;" vertex="1" parent="1">
          <mxGeometry x="1080" y="1160" width="120" height="40" as="geometry" />
        </mxCell>
        <mxCell id="rMuPhSQedwrYlNpY_E_n-126" value="OAM" style="rounded=0;whiteSpace=wrap;html=1;" vertex="1" parent="1">
          <mxGeometry x="120" y="1160" width="120" height="40" as="geometry" />
        </mxCell>
        <mxCell id="rMuPhSQedwrYlNpY_E_n-127" value="" style="endArrow=classic;startArrow=classic;html=1;rounded=0;entryX=0.25;entryY=1;entryDx=0;entryDy=0;exitX=0.5;exitY=0;exitDx=0;exitDy=0;fillColor=#dae8fc;strokeColor=#6c8ebf;strokeWidth=3;" edge="1" parent="1" source="rMuPhSQedwrYlNpY_E_n-71" target="rMuPhSQedwrYlNpY_E_n-126">
          <mxGeometry width="50" height="50" relative="1" as="geometry">
            <mxPoint x="470" y="1370" as="sourcePoint" />
            <mxPoint x="327" y="1211" as="targetPoint" />
          </mxGeometry>
        </mxCell>
        <mxCell id="rMuPhSQedwrYlNpY_E_n-128" value="" style="endArrow=classic;startArrow=classic;html=1;rounded=0;entryX=0.75;entryY=1;entryDx=0;entryDy=0;exitX=0.5;exitY=0;exitDx=0;exitDy=0;fillColor=#dae8fc;strokeColor=#6c8ebf;strokeWidth=3;" edge="1" parent="1" source="rMuPhSQedwrYlNpY_E_n-72" target="rMuPhSQedwrYlNpY_E_n-126">
          <mxGeometry width="50" height="50" relative="1" as="geometry">
            <mxPoint x="470" y="1370" as="sourcePoint" />
            <mxPoint x="327" y="1211" as="targetPoint" />
          </mxGeometry>
        </mxCell>
        <mxCell id="rMuPhSQedwrYlNpY_E_n-129" value="" style="endArrow=classic;startArrow=classic;html=1;rounded=0;entryX=0.25;entryY=1;entryDx=0;entryDy=0;exitX=0.5;exitY=0;exitDx=0;exitDy=0;fillColor=#dae8fc;strokeColor=#6c8ebf;strokeWidth=3;" edge="1" parent="1" source="rMuPhSQedwrYlNpY_E_n-71" target="rMuPhSQedwrYlNpY_E_n-125">
          <mxGeometry width="50" height="50" relative="1" as="geometry">
            <mxPoint x="870" y="1370" as="sourcePoint" />
            <mxPoint x="220" y="1210" as="targetPoint" />
          </mxGeometry>
        </mxCell>
        <mxCell id="rMuPhSQedwrYlNpY_E_n-130" value="" style="endArrow=classic;startArrow=classic;html=1;rounded=0;entryX=0.75;entryY=1;entryDx=0;entryDy=0;exitX=0.5;exitY=0;exitDx=0;exitDy=0;fillColor=#dae8fc;strokeColor=#6c8ebf;strokeWidth=3;" edge="1" parent="1" source="rMuPhSQedwrYlNpY_E_n-72" target="rMuPhSQedwrYlNpY_E_n-125">
          <mxGeometry width="50" height="50" relative="1" as="geometry">
            <mxPoint x="470" y="1370" as="sourcePoint" />
            <mxPoint x="1120" y="1210" as="targetPoint" />
          </mxGeometry>
        </mxCell>
        <mxCell id="rMuPhSQedwrYlNpY_E_n-131" value="OAM" style="rounded=0;whiteSpace=wrap;html=1;" vertex="1" parent="1">
          <mxGeometry x="-40" y="1160" width="120" height="40" as="geometry" />
        </mxCell>
        <mxCell id="rMuPhSQedwrYlNpY_E_n-132" value="" style="endArrow=classic;startArrow=classic;html=1;rounded=0;entryX=0.25;entryY=1;entryDx=0;entryDy=0;fillColor=#dae8fc;strokeColor=#6c8ebf;strokeWidth=3;exitX=0.5;exitY=0;exitDx=0;exitDy=0;" edge="1" parent="1" source="rMuPhSQedwrYlNpY_E_n-71" target="rMuPhSQedwrYlNpY_E_n-131">
          <mxGeometry width="50" height="50" relative="1" as="geometry">
            <mxPoint x="460" y="1360" as="sourcePoint" />
            <mxPoint x="160" y="1210" as="targetPoint" />
          </mxGeometry>
        </mxCell>
        <mxCell id="rMuPhSQedwrYlNpY_E_n-133" value="" style="endArrow=classic;startArrow=classic;html=1;rounded=0;entryX=0.75;entryY=1;entryDx=0;entryDy=0;fillColor=#dae8fc;strokeColor=#6c8ebf;strokeWidth=3;exitX=0.5;exitY=0;exitDx=0;exitDy=0;" edge="1" parent="1" source="rMuPhSQedwrYlNpY_E_n-72" target="rMuPhSQedwrYlNpY_E_n-131">
          <mxGeometry width="50" height="50" relative="1" as="geometry">
            <mxPoint x="470" y="1370" as="sourcePoint" />
            <mxPoint y="1210" as="targetPoint" />
          </mxGeometry>
        </mxCell>
        <mxCell id="rMuPhSQedwrYlNpY_E_n-134" value="OAM" style="rounded=0;whiteSpace=wrap;html=1;" vertex="1" parent="1">
          <mxGeometry x="1440" y="1160" width="120" height="40" as="geometry" />
        </mxCell>
        <mxCell id="rMuPhSQedwrYlNpY_E_n-135" value="" style="endArrow=classic;startArrow=classic;html=1;rounded=0;entryX=0.25;entryY=1;entryDx=0;entryDy=0;fillColor=#dae8fc;strokeColor=#6c8ebf;strokeWidth=3;exitX=0.5;exitY=0;exitDx=0;exitDy=0;" edge="1" parent="1" source="rMuPhSQedwrYlNpY_E_n-88" target="rMuPhSQedwrYlNpY_E_n-134">
          <mxGeometry width="50" height="50" relative="1" as="geometry">
            <mxPoint x="1780" y="1360" as="sourcePoint" />
            <mxPoint x="1647" y="1211" as="targetPoint" />
          </mxGeometry>
        </mxCell>
        <mxCell id="rMuPhSQedwrYlNpY_E_n-136" value="" style="endArrow=classic;startArrow=classic;html=1;rounded=0;entryX=0.75;entryY=1;entryDx=0;entryDy=0;fillColor=#dae8fc;strokeColor=#6c8ebf;strokeWidth=3;exitX=0.5;exitY=0;exitDx=0;exitDy=0;" edge="1" parent="1" source="rMuPhSQedwrYlNpY_E_n-89" target="rMuPhSQedwrYlNpY_E_n-134">
          <mxGeometry width="50" height="50" relative="1" as="geometry">
            <mxPoint x="1790" y="1370" as="sourcePoint" />
            <mxPoint x="1480" y="1210" as="targetPoint" />
          </mxGeometry>
        </mxCell>
        <mxCell id="rMuPhSQedwrYlNpY_E_n-137" value="OAM" style="rounded=0;whiteSpace=wrap;html=1;" vertex="1" parent="1">
          <mxGeometry x="2400" y="1160" width="120" height="40" as="geometry" />
        </mxCell>
        <mxCell id="rMuPhSQedwrYlNpY_E_n-138" value="OAM" style="rounded=0;whiteSpace=wrap;html=1;" vertex="1" parent="1">
          <mxGeometry x="2560" y="1160" width="120" height="40" as="geometry" />
        </mxCell>
        <mxCell id="rMuPhSQedwrYlNpY_E_n-139" value="" style="endArrow=classic;startArrow=classic;html=1;rounded=0;entryX=0.25;entryY=1;entryDx=0;entryDy=0;exitX=0.5;exitY=0;exitDx=0;exitDy=0;fillColor=#dae8fc;strokeColor=#6c8ebf;strokeWidth=3;" edge="1" parent="1" source="rMuPhSQedwrYlNpY_E_n-88" target="rMuPhSQedwrYlNpY_E_n-137">
          <mxGeometry width="50" height="50" relative="1" as="geometry">
            <mxPoint x="2190" y="1370" as="sourcePoint" />
            <mxPoint x="2340" y="1210" as="targetPoint" />
          </mxGeometry>
        </mxCell>
        <mxCell id="rMuPhSQedwrYlNpY_E_n-140" value="" style="endArrow=classic;startArrow=classic;html=1;rounded=0;entryX=0.25;entryY=1;entryDx=0;entryDy=0;exitX=0.5;exitY=0;exitDx=0;exitDy=0;fillColor=#dae8fc;strokeColor=#6c8ebf;strokeWidth=3;" edge="1" parent="1" source="rMuPhSQedwrYlNpY_E_n-88" target="rMuPhSQedwrYlNpY_E_n-138">
          <mxGeometry width="50" height="50" relative="1" as="geometry">
            <mxPoint x="1790" y="1370" as="sourcePoint" />
            <mxPoint x="2440" y="1210" as="targetPoint" />
          </mxGeometry>
        </mxCell>
        <mxCell id="rMuPhSQedwrYlNpY_E_n-141" value="" style="endArrow=classic;startArrow=classic;html=1;rounded=0;entryX=0.75;entryY=1;entryDx=0;entryDy=0;exitX=0.5;exitY=0;exitDx=0;exitDy=0;fillColor=#dae8fc;strokeColor=#6c8ebf;strokeWidth=3;" edge="1" parent="1" source="rMuPhSQedwrYlNpY_E_n-89" target="rMuPhSQedwrYlNpY_E_n-138">
          <mxGeometry width="50" height="50" relative="1" as="geometry">
            <mxPoint x="1790" y="1370" as="sourcePoint" />
            <mxPoint x="2600" y="1210" as="targetPoint" />
          </mxGeometry>
        </mxCell>
        <mxCell id="rMuPhSQedwrYlNpY_E_n-142" value="" style="endArrow=classic;startArrow=classic;html=1;rounded=0;entryX=0.75;entryY=1;entryDx=0;entryDy=0;exitX=0.5;exitY=0;exitDx=0;exitDy=0;fillColor=#dae8fc;strokeColor=#6c8ebf;strokeWidth=3;" edge="1" parent="1" source="rMuPhSQedwrYlNpY_E_n-89" target="rMuPhSQedwrYlNpY_E_n-137">
          <mxGeometry width="50" height="50" relative="1" as="geometry">
            <mxPoint x="2190" y="1370" as="sourcePoint" />
            <mxPoint x="2660" y="1210" as="targetPoint" />
          </mxGeometry>
        </mxCell>
        <mxCell id="rMuPhSQedwrYlNpY_E_n-143" value="OAM" style="rounded=0;whiteSpace=wrap;html=1;" vertex="1" parent="1">
          <mxGeometry x="2880" y="1160" width="120" height="40" as="geometry" />
        </mxCell>
        <mxCell id="rMuPhSQedwrYlNpY_E_n-144" value="OAM" style="rounded=0;whiteSpace=wrap;html=1;" vertex="1" parent="1">
          <mxGeometry x="3040" y="1160" width="120" height="40" as="geometry" />
        </mxCell>
        <mxCell id="rMuPhSQedwrYlNpY_E_n-145" value="OAM" style="rounded=0;whiteSpace=wrap;html=1;" vertex="1" parent="1">
          <mxGeometry x="3200" y="1160" width="120" height="40" as="geometry" />
        </mxCell>
        <mxCell id="rMuPhSQedwrYlNpY_E_n-146" value="L1 SWITCH 24" style="rounded=0;whiteSpace=wrap;html=1;" vertex="1" parent="1">
          <mxGeometry x="2600" y="1360" width="320" height="40" as="geometry" />
        </mxCell>
        <mxCell id="rMuPhSQedwrYlNpY_E_n-147" value="" style="endArrow=classic;startArrow=classic;html=1;rounded=0;entryX=0.308;entryY=1.025;entryDx=0;entryDy=0;entryPerimeter=0;exitX=0.5;exitY=0;exitDx=0;exitDy=0;fillColor=#dae8fc;strokeColor=#6c8ebf;strokeWidth=3;" edge="1" parent="1" source="rMuPhSQedwrYlNpY_E_n-146" target="rMuPhSQedwrYlNpY_E_n-143">
          <mxGeometry width="50" height="50" relative="1" as="geometry">
            <mxPoint x="3240" y="1690" as="sourcePoint" />
            <mxPoint x="3290" y="1640" as="targetPoint" />
          </mxGeometry>
        </mxCell>
        <mxCell id="rMuPhSQedwrYlNpY_E_n-148" value="" style="endArrow=classic;startArrow=classic;html=1;rounded=0;entryX=0.25;entryY=1;entryDx=0;entryDy=0;exitX=0.5;exitY=0;exitDx=0;exitDy=0;fillColor=#dae8fc;strokeColor=#6c8ebf;strokeWidth=3;" edge="1" parent="1" source="rMuPhSQedwrYlNpY_E_n-146" target="rMuPhSQedwrYlNpY_E_n-144">
          <mxGeometry width="50" height="50" relative="1" as="geometry">
            <mxPoint x="3359" y="1289" as="sourcePoint" />
            <mxPoint x="2980" y="1210" as="targetPoint" />
          </mxGeometry>
        </mxCell>
        <mxCell id="rMuPhSQedwrYlNpY_E_n-149" value="" style="endArrow=classic;startArrow=classic;html=1;rounded=0;entryX=0.25;entryY=1;entryDx=0;entryDy=0;exitX=0.5;exitY=0;exitDx=0;exitDy=0;fillColor=#dae8fc;strokeColor=#6c8ebf;strokeWidth=3;" edge="1" parent="1" source="rMuPhSQedwrYlNpY_E_n-146" target="rMuPhSQedwrYlNpY_E_n-145">
          <mxGeometry width="50" height="50" relative="1" as="geometry">
            <mxPoint x="3390" y="1290" as="sourcePoint" />
            <mxPoint x="2980" y="1210" as="targetPoint" />
          </mxGeometry>
        </mxCell>
        <mxCell id="rMuPhSQedwrYlNpY_E_n-150" value="OAM" style="rounded=0;whiteSpace=wrap;html=1;" vertex="1" parent="1">
          <mxGeometry x="2720" y="1160" width="120" height="40" as="geometry" />
        </mxCell>
        <mxCell id="rMuPhSQedwrYlNpY_E_n-151" value="" style="endArrow=classic;startArrow=classic;html=1;rounded=0;entryX=0.25;entryY=1;entryDx=0;entryDy=0;fillColor=#dae8fc;strokeColor=#6c8ebf;strokeWidth=3;exitX=0.5;exitY=0;exitDx=0;exitDy=0;" edge="1" parent="1" target="rMuPhSQedwrYlNpY_E_n-150" source="rMuPhSQedwrYlNpY_E_n-146">
          <mxGeometry width="50" height="50" relative="1" as="geometry">
            <mxPoint x="3060" y="1360" as="sourcePoint" />
            <mxPoint x="2927" y="1211" as="targetPoint" />
          </mxGeometry>
        </mxCell>
        <mxCell id="rMuPhSQedwrYlNpY_E_n-152" value="" style="endArrow=classic;startArrow=classic;html=1;rounded=0;entryX=0.75;entryY=1;entryDx=0;entryDy=0;fillColor=#dae8fc;strokeColor=#6c8ebf;strokeWidth=3;exitX=0.5;exitY=0;exitDx=0;exitDy=0;" edge="1" parent="1" source="rMuPhSQedwrYlNpY_E_n-146" target="rMuPhSQedwrYlNpY_E_n-150">
          <mxGeometry width="50" height="50" relative="1" as="geometry">
            <mxPoint x="3060" y="1360" as="sourcePoint" />
            <mxPoint x="2760" y="1210" as="targetPoint" />
          </mxGeometry>
        </mxCell>
        <mxCell id="rMuPhSQedwrYlNpY_E_n-153" value="" style="endArrow=classic;startArrow=classic;html=1;rounded=0;entryX=0.75;entryY=1;entryDx=0;entryDy=0;fillColor=#dae8fc;strokeColor=#6c8ebf;strokeWidth=3;exitX=0.5;exitY=0;exitDx=0;exitDy=0;" edge="1" parent="1" source="rMuPhSQedwrYlNpY_E_n-146" target="rMuPhSQedwrYlNpY_E_n-143">
          <mxGeometry width="50" height="50" relative="1" as="geometry">
            <mxPoint x="3070" y="1450" as="sourcePoint" />
            <mxPoint x="2760" y="1210" as="targetPoint" />
          </mxGeometry>
        </mxCell>
        <mxCell id="rMuPhSQedwrYlNpY_E_n-154" value="" style="endArrow=classic;startArrow=classic;html=1;rounded=0;entryX=0.75;entryY=1;entryDx=0;entryDy=0;fillColor=#dae8fc;strokeColor=#6c8ebf;strokeWidth=3;exitX=0.5;exitY=0;exitDx=0;exitDy=0;" edge="1" parent="1" source="rMuPhSQedwrYlNpY_E_n-146" target="rMuPhSQedwrYlNpY_E_n-144">
          <mxGeometry width="50" height="50" relative="1" as="geometry">
            <mxPoint x="3070" y="1450" as="sourcePoint" />
            <mxPoint x="2980" y="1210" as="targetPoint" />
          </mxGeometry>
        </mxCell>
        <mxCell id="rMuPhSQedwrYlNpY_E_n-155" value="" style="endArrow=classic;startArrow=classic;html=1;rounded=0;entryX=0.75;entryY=1;entryDx=0;entryDy=0;fillColor=#dae8fc;strokeColor=#6c8ebf;strokeWidth=3;exitX=0.5;exitY=0;exitDx=0;exitDy=0;" edge="1" parent="1" source="rMuPhSQedwrYlNpY_E_n-146" target="rMuPhSQedwrYlNpY_E_n-145">
          <mxGeometry width="50" height="50" relative="1" as="geometry">
            <mxPoint x="3070" y="1450" as="sourcePoint" />
            <mxPoint x="3140" y="1210" as="targetPoint" />
          </mxGeometry>
        </mxCell>
        <mxCell id="rMuPhSQedwrYlNpY_E_n-156" value="" style="endArrow=classic;startArrow=classic;html=1;rounded=0;entryX=0.5;entryY=1;entryDx=0;entryDy=0;exitX=0.5;exitY=0;exitDx=0;exitDy=0;fillColor=#e1d5e7;strokeColor=#9673a6;strokeWidth=3;dashed=1;dashPattern=8 8;" edge="1" parent="1" source="rMuPhSQedwrYlNpY_E_n-101" target="rMuPhSQedwrYlNpY_E_n-146">
          <mxGeometry width="50" height="50" relative="1" as="geometry">
            <mxPoint x="530" y="1650" as="sourcePoint" />
            <mxPoint x="870" y="1410" as="targetPoint" />
          </mxGeometry>
        </mxCell>
        <mxCell id="rMuPhSQedwrYlNpY_E_n-157" value="" style="endArrow=classic;startArrow=classic;html=1;rounded=0;entryX=0.5;entryY=1;entryDx=0;entryDy=0;fillColor=#e1d5e7;strokeColor=#9673a6;strokeWidth=3;exitX=0.5;exitY=0;exitDx=0;exitDy=0;dashed=1;dashPattern=8 8;" edge="1" parent="1" source="rMuPhSQedwrYlNpY_E_n-102" target="rMuPhSQedwrYlNpY_E_n-146">
          <mxGeometry width="50" height="50" relative="1" as="geometry">
            <mxPoint x="970" y="1650" as="sourcePoint" />
            <mxPoint x="2190" y="1410" as="targetPoint" />
          </mxGeometry>
        </mxCell>
        <mxCell id="rMuPhSQedwrYlNpY_E_n-158" value="" style="endArrow=classic;startArrow=classic;html=1;rounded=0;entryX=0.5;entryY=1;entryDx=0;entryDy=0;fillColor=#e1d5e7;strokeColor=#9673a6;strokeWidth=3;exitX=0.5;exitY=0;exitDx=0;exitDy=0;dashed=1;dashPattern=8 8;" edge="1" parent="1" source="rMuPhSQedwrYlNpY_E_n-103" target="rMuPhSQedwrYlNpY_E_n-146">
          <mxGeometry width="50" height="50" relative="1" as="geometry">
            <mxPoint x="970" y="1650" as="sourcePoint" />
            <mxPoint x="2770" y="1410" as="targetPoint" />
          </mxGeometry>
        </mxCell>
        <mxCell id="rMuPhSQedwrYlNpY_E_n-159" value="" style="endArrow=classic;startArrow=classic;html=1;rounded=0;entryX=0.5;entryY=1;entryDx=0;entryDy=0;fillColor=#e1d5e7;strokeColor=#9673a6;strokeWidth=3;exitX=0.5;exitY=0;exitDx=0;exitDy=0;dashed=1;dashPattern=8 8;" edge="1" parent="1" source="rMuPhSQedwrYlNpY_E_n-104" target="rMuPhSQedwrYlNpY_E_n-146">
          <mxGeometry width="50" height="50" relative="1" as="geometry">
            <mxPoint x="1730" y="1650" as="sourcePoint" />
            <mxPoint x="2770" y="1410" as="targetPoint" />
          </mxGeometry>
        </mxCell>
        <mxCell id="rMuPhSQedwrYlNpY_E_n-160" value="&lt;font style=&quot;font-size: 20px;&quot;&gt;Line with 4 200G/s&lt;/font&gt;" style="endArrow=classic;startArrow=classic;html=1;rounded=0;entryX=0.308;entryY=1.025;entryDx=0;entryDy=0;entryPerimeter=0;fillColor=#dae8fc;strokeColor=#6c8ebf;strokeWidth=3;" edge="1" parent="1">
          <mxGeometry x="-0.1429" width="50" height="50" relative="1" as="geometry">
            <mxPoint x="3305" y="1350" as="sourcePoint" />
            <mxPoint x="2990" y="1350" as="targetPoint" />
            <mxPoint as="offset" />
          </mxGeometry>
        </mxCell>
        <mxCell id="rMuPhSQedwrYlNpY_E_n-161" value="&lt;font style=&quot;font-size: 20px;&quot;&gt;Line with 1 200G/s&lt;/font&gt;" style="endArrow=classic;startArrow=classic;html=1;rounded=0;fillColor=#e1d5e7;strokeColor=#9673a6;strokeWidth=3;dashed=1;dashPattern=8 8;" edge="1" parent="1">
          <mxGeometry width="50" height="50" relative="1" as="geometry">
            <mxPoint x="2990" y="1430" as="sourcePoint" />
            <mxPoint x="3300" y="1430" as="targetPoint" />
          </mxGeometry>
        </mxCell>
        <mxCell id="rMuPhSQedwrYlNpY_E_n-162" value="&lt;h1&gt;硬件需要&lt;/h1&gt;&lt;div style=&quot;font-size: 25px;&quot;&gt;&lt;font style=&quot;font-size: 25px;&quot;&gt;CTX 6 IB&amp;nbsp; &amp;nbsp; &amp;nbsp; &amp;nbsp; &amp;nbsp; &amp;nbsp; &amp;nbsp;800 + 1&lt;/font&gt;&lt;/div&gt;&lt;div style=&quot;font-size: 25px;&quot;&gt;&lt;font style=&quot;font-size: 25px;&quot;&gt;40 port switch&amp;nbsp; &amp;nbsp; &amp;nbsp; 33&lt;/font&gt;&lt;/div&gt;&lt;div style=&quot;font-size: 25px;&quot;&gt;&lt;font style=&quot;font-size: 25px;&quot;&gt;200G Line&amp;nbsp; &amp;nbsp; &amp;nbsp; &amp;nbsp; &amp;nbsp; &amp;nbsp;1000&lt;br&gt;server 1+ Line&lt;/font&gt;&lt;/div&gt;" style="text;html=1;strokeColor=none;fillColor=none;spacing=5;spacingTop=-20;whiteSpace=wrap;overflow=hidden;rounded=0;" vertex="1" parent="1">
          <mxGeometry x="2990" y="1510" width="320" height="200" as="geometry" />
        </mxCell>
      </root>
    </mxGraphModel>
  </diagram>
</mxfile>
